<svg xmlns="http://www.w3.org/2000/svg" xmlns:xlink="http://www.w3.org/1999/xlink" width="500" zoomAndPan="magnify" viewBox="0 0 375 374.999991" height="500" preserveAspectRatio="xMidYMid meet" version="1.0"><defs><g/><clipPath id="77f31eed1e"><path d="M 61.847656 210.746094 L 209.792969 210.746094 L 209.792969 221.148438 L 61.847656 221.148438 Z M 61.847656 210.746094 " clip-rule="nonzero"/></clipPath><clipPath id="8edda126f2"><path d="M 209.792969 148.988281 L 306.390625 148.988281 L 306.390625 159.320312 L 209.792969 159.320312 Z M 209.792969 148.988281 " clip-rule="nonzero"/></clipPath></defs><rect x="-37.5" width="450" fill="#ffffff" y="-37.499999" height="449.999989" fill-opacity="1"/><rect x="-37.5" width="450" fill="#e4e4e4" y="-37.499999" height="449.999989" fill-opacity="1"/><g clip-path="url(#77f31eed1e)"><path fill="#000000" d="M 61.847656 210.746094 L 209.789062 210.746094 L 209.789062 221.148438 L 61.847656 221.148438 Z M 61.847656 210.746094 " fill-opacity="1" fill-rule="nonzero"/></g><g clip-path="url(#8edda126f2)"><path fill="#000000" d="M 209.792969 148.988281 L 306.390625 148.988281 L 306.390625 159.320312 L 209.792969 159.320312 Z M 209.792969 148.988281 " fill-opacity="1" fill-rule="nonzero"/></g><g fill="#000000" fill-opacity="1"><g transform="translate(61.045419, 192.370037)"><g><path d="M 15.117188 0 L 24.65625 0 L 24.65625 -33.054688 L 37.972656 -33.054688 L 37.972656 -41.992188 L 1.800781 -41.992188 L 1.800781 -33.054688 L 15.117188 -33.054688 Z M 15.117188 0 "/></g></g></g><g fill="#000000" fill-opacity="1"><g transform="translate(113.233909, 192.370037)"><g><path d="M 0.539062 0 L 10.738281 0 L 13.558594 -7.257812 L 30.234375 -7.257812 L 33.054688 0 L 43.25 0 L 26.574219 -41.992188 L 17.214844 -41.992188 Z M 16.015625 -14.757812 L 21.894531 -30.113281 L 27.835938 -14.757812 Z M 16.015625 -14.757812 "/></g></g></g><g fill="#000000" fill-opacity="1"><g transform="translate(169.441424, 192.370037)"><g><path d="M 5.039062 0 L 14.578125 0 L 14.578125 -13.078125 L 20.875 -13.078125 L 28.375 0 L 39.410156 0 L 30.714844 -14.578125 C 35.753906 -16.796875 38.691406 -21.355469 38.691406 -27.535156 C 38.691406 -36.472656 32.574219 -41.992188 22.976562 -41.992188 L 5.039062 -41.992188 Z M 14.457031 -21.117188 L 14.457031 -33.832031 L 21.714844 -33.832031 C 26.394531 -33.832031 29.035156 -31.554688 29.035156 -27.472656 C 29.035156 -23.394531 26.394531 -21.117188 21.714844 -21.117188 Z M 14.457031 -21.117188 "/></g></g></g><g fill="#000000" fill-opacity="1"><g transform="translate(207.357456, 220.342853)"><g><path d="M 22.195312 0.839844 C 33.113281 0.839844 39.773438 -6 39.773438 -17.277344 L 39.773438 -41.992188 L 30.234375 -41.992188 L 30.234375 -17.9375 C 30.234375 -11.519531 27.535156 -8.21875 22.195312 -8.21875 C 16.855469 -8.21875 14.15625 -11.519531 14.15625 -17.9375 L 14.15625 -41.992188 L 4.617188 -41.992188 L 4.617188 -17.277344 C 4.617188 -6 11.277344 0.839844 22.195312 0.839844 Z M 22.195312 0.839844 "/></g></g></g><g fill="#000000" fill-opacity="1"><g transform="translate(264.164824, 220.342853)"><g><path d="M 5.039062 0 L 14.515625 0 L 14.515625 -25.734375 L 33.054688 0 L 41.152344 0 L 41.152344 -41.992188 L 31.671875 -41.992188 L 31.671875 -16.4375 L 13.136719 -41.992188 L 5.039062 -41.992188 Z M 5.039062 0 "/></g></g></g></svg>